PathFileType	4	(X/Y/Z)	D:\TRACE\v60_Jaco2_6-2-23\BothDRS_Motion2_6-platform.trc
DataRate	CameraRate	NumFrames	NumMarkers	Units	OrigDataRate	OrigDataStartFrame	OrigNumFrames
100.00	100.00	      35	5	mm	100.00	2813	      7500
Frame#	Time	Left_Front			Right_Front			Left_Aft			Right_Aft			Post			
		X1	Y1	Z1	X2	Y2	Z2	X3	Y3	Z3	X4	Y4	Z4	X5	Y5	Z5	

2813	28.120	-847.63806	-47.94892	-649.83203	722.39868	-46.57330	-655.42261	-755.48920	46.22313	481.51495	687.03833	46.86672	490.70291	-61.50206	1219.28625	-1085.56873	
2814	28.130	-847.16718	-48.26950	-649.99915	722.99731	-47.16883	-655.51550	-754.60205	46.04221	481.46030	687.55121	47.28927	490.67743	-60.73566	1218.27649	-1087.58142	
2815	28.140	-846.48792	-48.94844	-649.70880	723.52643	-47.42226	-655.62250	-754.15875	46.31054	481.10794	687.99597	47.76641	490.63559	-60.55486	1217.31812	-1089.68481	
2816	28.150	-845.83295	-49.55778	-649.60901	723.89795	-47.68211	-655.72040	-753.41809	46.94210	481.17899	688.50793	48.15099	490.52502	-60.32021	1216.63538	-1091.93750	
2817	28.160	-845.50787	-50.11073	-649.73053	724.34357	-48.04882	-655.64868	-753.23383	47.30775	481.00821	689.04718	48.29626	490.31979	-59.73541	1215.88733	-1093.93164	
2818	28.170	-844.91400	-50.59539	-650.35291	724.90015	-48.61850	-655.73090	-753.10242	47.69855	480.86917	689.36505	48.41001	490.12030	-58.97788	1215.10889	-1095.68652	
2819	28.180	-844.47644	-50.75657	-650.36157	725.29980	-48.95783	-655.72766	-752.54504	47.78206	480.76611	689.87061	48.78212	490.03818	-58.25539	1214.23804	-1097.52710	
2820	28.190	-844.03088	-50.93712	-650.28400	725.80011	-49.29788	-655.79022	-751.83936	48.01136	480.68747	690.45117	49.23122	490.02109	-57.80047	1213.63660	-1099.24451	
2821	28.200	-843.63428	-51.17328	-650.14288	726.63849	-49.74400	-655.71173	-751.17804	48.31717	480.57907	691.33051	49.53511	489.90271	-57.34424	1213.05713	-1100.84351	
2822	28.210	-842.65948	-51.66948	-650.37457	727.35712	-49.85379	-655.83179	-750.68701	48.80999	480.43973	691.91846	49.65200	489.76239	-56.46673	1212.49426	-1102.48804	
2823	28.220	-842.10858	-52.00739	-650.32587	727.83881	-49.96872	-655.79242	-750.43927	49.16873	480.26981	692.25482	49.75684	489.58435	-55.93639	1211.92896	-1104.24561	
2824	28.230	-841.21454	-52.61619	-650.64557	728.22668	-50.54158	-655.92444	-749.49683	48.90931	480.05484	692.62848	49.82379	489.54880	-55.32686	1211.40649	-1105.76050	
2825	28.240	-840.85870	-52.69294	-650.76147	729.02631	-50.88678	-655.92065	-748.70581	48.97649	480.11221	693.50195	50.16310	489.54303	-54.35706	1210.86914	-1107.01538	
2826	28.250	-840.46674	-52.90859	-650.64392	729.88184	-51.02081	-655.96600	-748.26440	49.10584	480.14905	694.50861	50.47744	489.47324	-53.97355	1210.28735	-1108.39063	
2827	28.260	-839.69330	-53.09513	-650.38025	730.48181	-50.91072	-655.99683	-747.57690	49.36847	480.23007	694.94073	50.47189	489.54550	-53.15394	1209.97729	-1109.72241	
2828	28.270	-838.63226	-52.98783	-650.33276	731.08759	-51.06305	-656.09454	-746.64929	49.44067	480.16373	695.63361	50.37565	489.37119	-52.60474	1209.81616	-1111.23572	
2829	28.280	-837.98834	-52.92742	-650.45807	731.89630	-51.21854	-656.11188	-745.93835	49.36238	479.95657	696.31061	50.39536	489.37997	-51.75206	1209.59485	-1112.07996	
2830	28.290	-837.45587	-53.08305	-650.57196	732.68817	-51.19812	-655.93158	-745.41150	49.37068	479.83081	696.95282	50.42726	489.35770	-50.95074	1209.45825	-1113.32166	
2831	28.300	-836.76447	-53.27944	-650.69446	733.37903	-51.23951	-656.05560	-744.14655	48.89142	479.89600	697.78320	50.41797	489.41306	-50.24223	1209.44299	-1114.12134	
2832	28.310	-836.00543	-53.13129	-650.54700	734.18463	-51.11885	-656.02069	-743.71185	49.00528	480.05130	698.54303	50.39597	489.37183	-49.52186	1209.39136	-1114.89587	
2833	28.320	-835.11877	-52.63430	-650.45697	734.76788	-51.07696	-656.09180	-742.95880	49.04269	480.01486	699.51215	50.41133	489.42816	-48.57047	1209.62305	-1115.41162	
2834	28.330	-834.29291	-52.62609	-650.55634	735.64001	-50.83229	-656.09955	-742.33807	49.18287	480.15170	700.10779	50.40455	489.47226	-47.59694	1209.95166	-1116.14478	
2835	28.340	-833.52179	-52.44126	-650.52820	736.50775	-50.54826	-655.97565	-741.46716	49.11245	480.21753	700.94891	50.20474	489.36496	-47.03183	1210.05408	-1116.56616	
2836	28.350	-832.85339	-52.54813	-650.68951	737.13611	-50.49830	-656.01965	-740.58771	48.87416	480.38409	701.88745	50.05427	489.43649	-46.07874	1210.13391	-1117.02991	
2837	28.360	-831.72308	-51.98669	-650.77344	737.83893	-50.38544	-656.08466	-739.91736	48.53760	480.29355	702.61688	49.92796	489.62570	-44.77119	1210.28320	-1117.19336	
2838	28.370	-831.01184	-51.46375	-650.40704	738.53320	-50.11314	-656.28644	-738.78088	48.44662	481.02109	703.34021	49.69984	489.64673	-44.25411	1210.76831	-1117.10596	
2839	28.380	-830.04169	-50.81825	-650.39539	739.92773	-49.62635	-655.64020	-737.92651	48.36112	480.77057	704.38599	49.40926	489.80637	-43.36204	1211.55139	-1116.80249	
2840	28.390	-829.41040	-50.78675	-650.34271	741.00342	-48.99922	-655.64996	-737.23163	48.17477	480.51929	704.80206	49.28894	489.92996	-42.81687	1211.97339	-1116.57031	
2841	28.400	-828.31885	-50.93082	-650.52899	741.92358	-48.77540	-655.80969	-736.36627	47.92351	480.54703	705.74976	48.86894	489.75110	-41.72351	1212.48169	-1115.82373	
2842	28.410	-827.42731	-50.56461	-650.47748	742.81689	-48.42607	-655.87335	-735.55371	47.55310	480.65643	706.90796	48.57676	489.96417	-40.75684	1212.92468	-1115.20203	
2843	28.420	-826.60297	-49.98972	-650.27789	743.42822	-48.27177	-655.82404	-734.68823	47.25259	480.78635	707.62592	48.42477	490.10641	-40.02732	1213.65784	-1114.34204	
2844	28.430	-825.66608	-49.29503	-650.20679	744.27167	-47.80537	-655.74475	-733.72510	47.31068	480.86685	708.67206	48.04762	490.03015	-38.98655	1214.33875	-1113.36670	
2845	28.440	-824.61633	-48.64868	-650.14056	745.73138	-47.12363	-655.45282	-732.63867	47.11180	480.99442	711.47125	49.24106	491.41293	-37.49770	1215.14685	-1112.44434	
2846	28.450	-823.71844	-48.23442	-650.05847	746.53308	-46.80036	-655.68939	-731.86121	46.70493	481.13470	710.43768	47.43030	489.88043	-37.27183	1216.13135	-1110.91980	
2847	28.460	-822.80719	-48.00417	-650.17780	747.34235	-46.11820	-655.49548	-730.74884	46.00107	481.21936	711.53119	47.10632	490.56952	-35.98048	1217.20325	-1109.45068	
